/* XPM */
static char *coin_xpm[] = {
/* columns rows colors chars-per-pixel */
"50 50 4 1 ",
"  c None",
"# c  #FFD700",
"$ c  #FFA500",
"@ c  #000000",
/* pixels */
"                                                  ",
"                                                  ",
"                                                  ",
"                                                  ",
"                                                  ",
"                                                  ",
"                                                  "
"                                                  ",
"                ############@@@@@@                ",
"                ############@@@@@@                ",
"                ############@@@@@@                ",
"             ######@@@@@@######@@@@@@             ",
"             ######@@@@@@######@@@@@@             ",
"             ######@@@@@@######@@@@@@             ",
"             ##################@@@@@@             ",
"             ##################@@@@@@             ",
"             ##################@@@@@@             ",
"          ######$$$######@@@######@@@@@@          ",
"          ######$$$######@@@######@@@@@@          ",
"          ######$$$######@@@######@@@@@@          ",
"          ######$$$######@@@######@@@@@@          ",
"          ######$$$######@@@######@@@@@@          ",
"          ######$$$######@@@######@@@@@@          ",
"          ######$$$######@@@######@@@@@@          ",
"          ######$$$######@@@######@@@@@@          ",
"          ######$$$######@@@######@@@@@@          ",
"          ######$$$######@@@######@@@@@@          ",
"          ######$$$######@@@######@@@@@@          ",
"          ######$$$######@@@######@@@@@@          ",
"          ######$$$######@@@######@@@@@@          ",
"          ######$$$######@@@######@@@@@@          ",
"          ######$$$######@@@######@@@@@@          ",
"          ######$$$######@@@######@@@@@@          ",
"          ######$$$######@@@######@@@@@@          ",
"          ######$$$######@@@######@@@@@@          ",
"          ######$$$######@@@######@@@@@@          ",
"          ######$$$######@@@######@@@@@@          ",
"          ######$$$######@@@######@@@@@@          ",
"          ######$$$######@@@######@@@@@@          ",
"          ######$$$######@@@######@@@@@@          ",
"          ######$$$######@@@######@@@@@@          ",
"             ##################@@@@@@             ",
"             ##################@@@@@@             ",
"             ##################@@@@@@             ",
"             ######@@@@@@######@@@@@@             ",
"             ######@@@@@@######@@@@@@             ",
"             ######@@@@@@######@@@@@@             ",
"                ############@@@@@@                ",
"                ############@@@@@@                ",
"                ############@@@@@@                ",
};