/* XPM */
static char *wall[] = {
/* columns rows colors chars-per-pixel */
"50 50 4 1 ",
"  c #808080",
". c #606060", 
"X c #A0A0A0",
"o c #404040",
/* pixels */
"..................................................",
"XXXXXXXXXXXXXXXXXXXXXXXXXXXXXXXXXXXXXXXXXXXXXXXXXX",
"..................................................",
"oooooooooooooooooooooooooooooooooooooooooooooooooo",
"..................................................",
"XXXXXXXXXXXXXXXXXXXXXXXXXXXXXXXXXXXXXXXXXXXXXXXXXX",
"..................................................",
"oooooooooooooooooooooooooooooooooooooooooooooooooo",
"..................................................",
"XXXXXXXXXXXXXXXXXXXXXXXXXXXXXXXXXXXXXXXXXXXXXXXXXX",
"..................................................",
"oooooooooooooooooooooooooooooooooooooooooooooooooo",
"..................................................",
"XXXXXXXXXXXXXXXXXXXXXXXXXXXXXXXXXXXXXXXXXXXXXXXXXX",
"..................................................",
"oooooooooooooooooooooooooooooooooooooooooooooooooo",
"..................................................",
"XXXXXXXXXXXXXXXXXXXXXXXXXXXXXXXXXXXXXXXXXXXXXXXXXX",
"..................................................",
"oooooooooooooooooooooooooooooooooooooooooooooooooo",
"..................................................",
"XXXXXXXXXXXXXXXXXXXXXXXXXXXXXXXXXXXXXXXXXXXXXXXXXX",
"..................................................",
"oooooooooooooooooooooooooooooooooooooooooooooooooo",
"..................................................",
"XXXXXXXXXXXXXXXXXXXXXXXXXXXXXXXXXXXXXXXXXXXXXXXXXX",
"..................................................",
"oooooooooooooooooooooooooooooooooooooooooooooooooo",
"..................................................",
"XXXXXXXXXXXXXXXXXXXXXXXXXXXXXXXXXXXXXXXXXXXXXXXXXX",
"..................................................",
"oooooooooooooooooooooooooooooooooooooooooooooooooo",
"..................................................",
"XXXXXXXXXXXXXXXXXXXXXXXXXXXXXXXXXXXXXXXXXXXXXXXXXX",
"..................................................",
"oooooooooooooooooooooooooooooooooooooooooooooooooo",
"..................................................",
"XXXXXXXXXXXXXXXXXXXXXXXXXXXXXXXXXXXXXXXXXXXXXXXXXX",
"..................................................",
"oooooooooooooooooooooooooooooooooooooooooooooooooo",
"..................................................",
"XXXXXXXXXXXXXXXXXXXXXXXXXXXXXXXXXXXXXXXXXXXXXXXXXX",
"..................................................",
"oooooooooooooooooooooooooooooooooooooooooooooooooo",
"..................................................",
"XXXXXXXXXXXXXXXXXXXXXXXXXXXXXXXXXXXXXXXXXXXXXXXXXX",
"..................................................",
"oooooooooooooooooooooooooooooooooooooooooooooooooo",
"..................................................",
"XXXXXXXXXXXXXXXXXXXXXXXXXXXXXXXXXXXXXXXXXXXXXXXXXX",
"..................................................",
"oooooooooooooooooooooooooooooooooooooooooooooooooo",
};