/* XPM */
static char *door[] = {
/* columns rows colors chars-per-pixel */
"50 50 3 1 ",
"  c None",
". c #8B4513",
"X c #CD853F",
/* pixels */
"                                                  ",
"                                                  ",
"                                                  ",
"                                                  ",
"                                                  ",
"            ....................                  ",
"            XXXXXXXXXXXXXXXXXXXX                  ",
"            XXXXXXXXXXXXXXXXXXXX                  ",
"            XXXXXXXXXXXXXXXXXXXX                  ",
"            XXXXXXXXXXXXXXXXXXXX                  ",
"            XXXXXXXXXXXXXXXXXXXX                  ",
"            XXXXXXXXXXXXXXXXXXXX                  ",
"            XXXXXXXXXXXXXXXXXXXX                  ",
"            XXXXXXXXXXXXXXXXXXXX                  ",
"            XXXXXXXXXXXXXXXXXXXX                  ",
"            XXXXXXXXXXXXXXXXXXXX                  ",
"            XXXXXXXXXXXXXXXXXXXX                  ",
"            XXXXXXXXXXXXXXXXXXXX                  ",
"            XXXXXXXXXXXXXXXXXXXX                  ",
"            XXXXXXXXXXXXXXXXXXXX                  ",
"            XXXXXXXXXXXXXXXXXXXX                  ",
"            XXXXXXXXXXXXXXXXXXXX                  ",
"            XXXXXXXXXXXXXXXXXXXX                  ",
"            XXXXXXXXXXXX..XXXXXX                  ",
"            XXXXXXXXXXXX..XXXXXX                  ",
"            XXXXXXXXXXXX..XXXXXX                  ",
"            XXXXXXXXXXXXXXXXXXXX                  ",
"            XXXXXXXXXXXXXXXXXXXX                  ",
"            XXXXXXXXXXXXXXXXXXXX                  ",
"            XXXXXXXXXXXXXXXXXXXX                  ",
"            XXXXXXXXXXXXXXXXXXXX                  ",
"            XXXXXXXXXXXXXXXXXXXX                  ",
"            XXXXXXXXXXXXXXXXXXXX                  ",
"            XXXXXXXXXXXXXXXXXXXX                  ",
"            XXXXXXXXXXXXXXXXXXXX                  ",
"            XXXXXXXXXXXXXXXXXXXX                  ",
"            XXXXXXXXXXXXXXXXXXXX                  ",
"            XXXXXXXXXXXXXXXXXXXX                  ",
"            XXXXXXXXXXXXXXXXXXXX                  ",
"            XXXXXXXXXXXXXXXXXXXX                  ",
"            XXXXXXXXXXXXXXXXXXXX                  ",
"            XXXXXXXXXXXXXXXXXXXX                  ",
"            XXXXXXXXXXXXXXXXXXXX                  ",
"            XXXXXXXXXXXXXXXXXXXX                  ",
"            ....................                  ",
"                                                  ",
"                                                  ",
"                                                  ",
"                                                  ",
"                                                  ",
};